<?xml version="1.0" encoding="utf-8" ?>
<svg xmlns="http://www.w3.org/2000/svg" xmlns:xlink="http://www.w3.org/1999/xlink" width="672" height="649">
	<path fill="#082545" d="M309.757 22.1284L314.897 22.0057C337.373 21.5759 360.296 21.6604 382.552 25.1915C412.609 29.9603 440.372 40.9702 467.255 54.9308C479.033 61.0473 490.317 67.3633 501.179 75.032Q510.336 81.6127 518.975 88.8609Q527.613 96.1091 535.684 103.984Q537.654 105.901 539.589 107.853Q541.524 109.805 543.424 111.791Q545.324 113.777 547.188 115.796Q549.053 117.816 550.881 119.868Q552.709 121.92 554.501 124.005Q556.292 126.089 558.047 128.205Q559.801 130.321 561.517 132.468Q563.234 134.614 564.911 136.791Q566.589 138.968 568.228 141.175Q569.867 143.381 571.467 145.616Q573.066 147.851 574.625 150.115Q576.185 152.378 577.704 154.668Q579.223 156.959 580.701 159.276Q582.179 161.594 583.615 163.937Q585.052 166.28 586.447 168.648Q587.842 171.017 589.194 173.409Q590.546 175.802 591.856 178.218Q593.166 180.635 594.432 183.074Q595.699 185.513 596.922 187.975Q598.145 190.436 599.324 192.919Q600.503 195.402 601.637 197.905Q602.772 200.408 603.862 202.931Q604.952 205.455 605.997 207.997Q607.042 210.539 608.042 213.099Q609.041 215.659 609.995 218.237Q610.949 220.814 611.857 223.409Q612.765 226.003 613.627 228.613Q614.489 231.222 615.304 233.847Q616.119 236.472 616.888 239.111Q617.656 241.75 618.378 244.402Q619.099 247.054 619.773 249.718Q620.447 252.383 621.074 255.059C624.766 271.044 627.216 286.872 627.506 303.302C627.679 313.074 627.593 322.86 627.654 332.634C627.724 343.8 627.973 355.022 626.861 366.149C621.216 422.63 596.1 478.207 560.494 522.085C554.698 529.228 548.39 535.956 542.002 542.567Q538.565 546.099 535.014 549.517Q531.463 552.934 527.801 556.233Q524.139 559.532 520.371 562.708Q516.603 565.885 512.732 568.936Q508.862 571.987 504.893 574.909Q500.924 577.832 496.862 580.622Q492.799 583.412 488.647 586.067Q484.495 588.722 480.258 591.24Q476.021 593.757 471.703 596.134Q467.385 598.51 462.992 600.744Q458.598 602.977 454.134 605.065Q449.67 607.153 445.139 609.093Q440.608 611.033 436.016 612.823Q431.424 614.613 426.776 616.251Q422.127 617.889 417.428 619.373Q412.728 620.858 407.982 622.187C389.851 627.257 373.699 630.379 354.847 630.707C295.398 632.666 257.916 627.972 203.621 601.298C193.906 596.525 184.233 591.699 175.013 586.008C160.175 576.848 146.309 565.3 133.605 553.416C78.5318 501.897 39.9277 425.477 37.4103 349.503Q37.0179 335.63 37.0859 321.751C37.0398 308.123 37.1087 294.756 38.7345 281.2C44.3202 234.627 65.0423 184.042 92.4062 145.991Q102.29 132.516 113.778 120.379C155.976 75.3417 196.549 47.478 256.54 31.139C269.45 27.623 283.03 24.2329 296.343 22.7595C300.76 22.2706 305.312 22.2733 309.757 22.1284Z"/>
	<path fill="#22D3CD" d="M412.062 257.289C418.187 256.991 421.797 258.562 427.073 261.314C428.683 262.154 430.353 263.022 432.173 263.285C433.842 263.526 435.054 262.781 436.422 261.891C444.235 256.807 444.722 245.686 450.511 241.383C450.591 241.323 450.674 241.268 450.755 241.21C449.48 249.282 445.543 257.15 438.818 261.996C429.446 268.749 418.816 269.254 407.698 269.046C403.127 261.755 398.059 254.535 393.925 247.004C399.046 248.391 405.362 260.367 408.085 264.821Q410.018 261.025 412.062 257.289Z"/>
	<path fill="#25CBFC" d="M276.539 346.298C280.14 346.145 283.715 346.305 287.308 346.518L287.127 346.848C280.433 358.892 268.181 369.255 254.839 373.027C245.076 375.788 235.977 373.718 227.267 368.827Q222.989 366.108 219.166 362.78C216.235 360.215 210.914 354.777 210.836 350.638C210.819 349.693 211.154 348.935 211.804 348.263C212.813 347.22 217.6 347.209 219.144 347.171C225.567 347.009 232.017 347.841 238.445 347.834C251.109 347.821 263.886 346.893 276.539 346.298Z"/>
	<path fill="#54FCD0" d="M240.418 140.539C241.689 140.438 242.962 140.438 244.235 140.472C249.45 140.608 254.828 142.059 258.469 146.026C267.175 155.51 262.517 180.991 261.768 193.23C254.324 187.999 246.481 182.165 237.017 182.042C230.872 182.093 216.232 182.967 211.071 182.011C209.467 181.714 207.997 180.954 206.683 180.006C204.208 178.22 202.593 175.908 202.205 172.847C201.609 168.14 204.064 163.857 206.815 160.263C214.586 150.112 227.682 142.21 240.418 140.539Z"/>
	<path fill="#54FCD0" d="M289.292 131.757C297.826 125.091 309.648 119.107 320.546 118.533C331.167 117.973 339.962 124.201 347.541 130.959C346.025 137.535 344.503 144.61 344.65 151.377C344.88 161.92 347.034 179.524 355.041 186.944C357.333 189.067 360.112 190.528 363.31 190.362C365.394 190.253 367.617 189.593 369.006 187.96C374.296 181.742 371.759 160.44 371.206 152.217C373.707 149.08 376.656 146.156 380.01 143.936C387.622 138.9 396.289 137.132 405.213 139.059C420.152 142.284 437.121 155.442 437.514 171.897C437.67 178.457 435.047 185.423 437.05 191.854C439.293 199.054 445.554 203.436 449.483 209.56C455.87 219.517 453.088 230.426 450.755 241.21C450.674 241.268 450.591 241.323 450.511 241.383C444.722 245.686 444.235 256.807 436.422 261.891C435.054 262.781 433.842 263.526 432.173 263.285C430.353 263.022 428.683 262.154 427.073 261.314C421.797 258.562 418.187 256.991 412.062 257.289Q410.018 261.025 408.085 264.821C405.362 260.367 399.046 248.391 393.925 247.004C390.276 241.679 385.817 236.637 381.179 232.15C363.531 215.077 346.159 212.384 322.831 211.557C315.325 211.29 307.398 211.605 300.535 208.043C281.626 198.23 292.096 170.149 292.693 153.759C292.965 146.277 291.507 138.877 289.292 131.757Z"/>
	<path fill="#082545" d="M405.502 182.124C409.8 182.184 414.677 183.564 417.743 186.674C421.088 190.067 422.621 195.45 422.511 200.14C422.407 204.56 420.583 209.163 417.291 212.19C415.676 213.674 413.247 214.949 411.015 214.818C404.775 212.101 397.431 207.481 394.248 201.252C392.772 198.365 392.375 195.22 393.506 192.14C395.435 186.883 400.771 184.323 405.502 182.124Z"/>
	<defs>
		<linearGradient id="gradient_0" gradientUnits="userSpaceOnUse" x1="277.48065" y1="206.26454" x2="267.03922" y2="323.96838">
			<stop offset="0" stop-color="#72FFCE"/>
			<stop offset="1" stop-color="#1BF4E5"/>
		</linearGradient>
	</defs>
	<path fill="url(#gradient_0)" d="M213.131 200.258C215.188 200.057 217.025 200.365 218.988 200.952C227.078 203.372 234.674 207.384 242.573 210.359C248.803 212.707 255.875 212.93 261.51 216.727C273.142 224.566 275.401 234.119 291.217 239.446C305.3 244.189 320.826 240.215 335.304 241.751Q336.475 241.869 337.638 242.045Q338.801 242.222 339.954 242.456Q341.107 242.691 342.247 242.982Q343.387 243.274 344.51 243.623Q345.634 243.971 346.739 244.375Q347.844 244.779 348.927 245.238Q350.011 245.697 351.07 246.21Q352.129 246.723 353.161 247.288Q354.193 247.853 355.195 248.469Q356.197 249.084 357.168 249.75Q358.138 250.415 359.074 251.128Q360.01 251.841 360.909 252.6Q361.808 253.359 362.668 254.162Q363.528 254.965 364.346 255.81Q365.165 256.655 365.94 257.54Q366.716 258.424 367.446 259.347C374.168 267.769 380.291 280.135 378.963 291.218C377.854 300.475 373.445 310.107 365.953 315.905C361.729 319.173 357.599 320.255 352.35 320.776C346.893 321.317 341.613 320.793 336.165 320.462Q327.551 319.893 318.919 319.976C295.857 320.284 272.803 321.271 249.742 321.267C236.745 321.265 223.436 321.328 210.542 319.596C193.525 317.311 177.621 309.56 167.054 295.745C163.693 290.44 162.112 284.779 162.408 278.487C162.818 269.774 168.017 260.637 174.353 254.826C177.078 257.611 179.321 261.074 181.743 264.145C189.638 274.157 198.437 283.271 210.655 287.783C236.582 297.357 312.864 297.267 337.075 286.199C334.315 280.577 330.115 273.519 324.418 270.474C316.912 266.463 305.837 267.041 297.495 267.029C279.14 267.001 238.057 269.68 222.71 263.464C206.809 257.023 193.745 237.844 187.239 222.605C188.817 215.68 190.738 209.805 194.341 203.659Q203.716 201.849 213.131 200.258Z"/>
	<path fill="#FEFEFE" d="M483.385 242.039C483.76 242.238 483.827 242.244 484.17 242.596C485.252 243.706 485.991 245.96 486.439 247.459C491.206 263.443 484.763 283.216 484.105 299.57C483.987 302.504 483.66 305.453 484.75 308.23C486.957 313.854 490.58 319.167 493.842 324.234C501.647 336.36 510.303 347.867 518.548 359.691C520.296 362.197 522.101 364.685 523.781 367.237C525.284 369.521 526.455 372.004 528.316 374.034C519.057 374.11 496.902 373.249 489.431 375.518C487.178 376.202 484.821 377.768 483.102 379.381C475.631 386.392 477.066 403.263 477.064 412.607C477.063 420.491 476.79 428.496 477.144 436.369C477.382 441.677 478.134 446.843 478.098 452.188C478.069 456.5 477.487 460.661 477.209 464.94C477.017 467.891 477.096 470.843 476.848 473.796C476.611 476.622 476.132 479.373 475.998 482.217C473 485.423 470.767 488.966 467.479 492.01C457.064 492.642 446.403 491.972 435.953 492.084C431.709 492.129 427.567 492.874 423.344 493.02C420.007 493.136 416.663 493.017 413.327 493.127C410.86 493.208 408.383 493.551 405.917 493.537C402.429 493.517 398.966 493.039 395.458 493.05C387.381 493.076 377.753 493.617 371.754 499.725C359.198 512.509 360.055 554.874 360.052 572.106L360.07 599.061C354.266 599.053 347.641 599.635 341.953 600.708C338.723 601.318 335.319 602.488 332.045 602.656C328.322 602.846 324.533 600.531 320.771 600.269C310.393 599.547 299.747 599.573 289.465 597.966C263.913 593.972 217.573 579.805 197.835 563.626C196.872 562.837 195.706 562.166 194.837 561.281C191.483 557.867 191.728 541.389 192.001 536.461C192.212 532.645 193.019 528.963 192.949 525.117L192.935 524.483L192.929 489.868C192.928 473.281 193.151 456.847 188.921 440.645C184.767 424.733 176.801 410.904 169.279 396.465C157.86 374.545 148.692 349.531 148.967 324.555C154.723 329.478 159.761 335.294 166.291 339.289C169.984 341.547 173.972 343.074 177.852 344.951C179.433 364.311 188.315 379.203 202.521 392.059C213.235 401.755 231.857 407.527 246.257 406.771C258.874 406.107 272.484 401.91 282.383 393.865C285.551 391.29 288.399 388.116 291.286 385.22C293.984 382.513 296.822 379.884 299.346 377.013C303.508 372.279 307.217 367.077 310.98 362.024C314.281 357.592 317.135 352.177 320.791 348.121C323.149 347.951 328.783 350.176 331.486 350.763C336.329 351.816 341.682 352.644 346.645 352.813C362.226 353.345 376.555 346.31 387.697 335.813C396.553 327.468 402.082 317.686 405.851 306.201C406.848 303.165 407.941 300.137 408.042 296.913C419.544 296.985 432.144 297.465 442.849 292.614C463.376 283.312 475.69 262.313 483.385 242.039Z"/>
	<path fill="#FEFEFE" d="M313.981 52.9897C322.891 52.6579 332.235 52.6117 341.142 52.9782C344.393 53.112 347.621 53.5694 350.867 53.7671C354.714 54.0014 358.581 53.7929 362.429 54.0801C376.27 55.1132 390.864 57.7386 404.124 61.8579C416.51 65.7061 429.095 69.9888 440.874 75.4249C456.643 82.7029 472.477 92.7299 486.338 103.151C494.335 109.164 502.273 115.264 509.629 122.071C534.858 145.423 554.582 174.141 570.504 204.441C575.562 214.065 579.114 224.358 582.586 234.626Q583.473 237.312 584.308 240.015Q585.144 242.717 585.927 245.436Q586.71 248.154 587.44 250.887Q588.17 253.619 588.848 256.366Q589.526 259.112 590.15 261.871Q590.775 264.63 591.346 267.4Q591.917 270.171 592.435 272.952Q592.952 275.733 593.416 278.523Q593.88 281.314 594.291 284.113Q594.701 286.911 595.057 289.718Q595.413 292.524 595.715 295.336Q596.017 298.149 596.264 300.967Q596.512 303.785 596.705 306.607Q596.898 309.429 597.037 312.254Q597.176 315.08 597.26 317.907Q597.345 320.735 597.374 323.563Q597.404 326.392 597.379 329.22Q597.355 332.049 597.275 334.877Q597.196 337.704 597.062 340.53Q596.928 343.355 596.74 346.178Q596.552 349 596.309 351.819Q596.067 354.637 595.77 357.45Q595.473 360.263 595.122 363.07Q594.771 365.877 594.366 368.676Q593.961 371.476 593.502 374.267Q593.043 377.058 592.53 379.84Q592.017 382.622 591.451 385.394Q590.884 388.165 590.265 390.925Q589.645 393.685 588.973 396.433Q588.3 399.18 587.574 401.915Q586.849 404.649 586.071 407.368Q585.292 410.088 584.462 412.792C579.681 428.071 573.667 443.665 566.118 457.819C559.255 470.685 549.923 484.948 540.896 496.425C536.817 501.61 532.375 506.544 528.015 511.493C525.746 514.068 523.658 516.818 521.274 519.287C516.394 524.34 511.493 528.54 506.362 533.243C504.241 535.187 502.291 537.32 500.133 539.225C497.187 541.825 493.961 544.16 490.869 546.583C478.005 556.667 464.833 565.693 450.149 572.974C439.869 578.071 429.052 582.038 418.147 585.565C410.627 587.998 398.347 591.592 391.6 595.185L391.066 595.473C390.77 591.276 391.327 587.281 391.639 583.12C392.302 574.27 393.273 565.413 393.815 556.558C394.298 548.688 393.603 540.733 393.967 532.846C394.122 529.502 394.653 526.265 395.122 522.959L440.203 522.977C451.044 522.989 463.274 524.077 473.82 521.397C482.429 519.21 491.628 513.816 497.858 507.563C509.002 496.378 511.144 485.589 512.006 470.52C512.165 467.74 512.606 464.925 512.546 462.142C512.481 459.122 512.03 456.104 511.931 453.08C511.777 448.39 511.87 443.668 511.875 438.973C511.88 434.219 511.738 429.409 511.997 424.665C512.302 419.073 512.9 413.67 512.896 408.037C517.121 407.407 521.298 406.683 525.545 406.153C535.844 404.868 547.628 404.493 556.523 398.513C562.756 394.322 566.902 388.577 568.417 381.278C570.094 373.203 541.829 336.296 535.994 327.493C532.057 321.555 528.512 315.336 525.004 309.138C523.124 305.815 520.983 302.458 519.568 298.913C518.249 295.607 520.572 285.516 520.781 281.473C521.011 277.033 521.038 272.475 520.838 268.036Q520.693 264.869 520.41 261.711Q520.127 258.553 519.705 255.411Q519.284 252.268 518.726 249.147Q518.167 246.026 517.472 242.933Q516.778 239.839 515.948 236.779Q515.119 233.719 514.157 230.698Q513.194 227.677 512.1 224.701Q511.006 221.725 509.783 218.8C504.575 206.309 497.437 193.006 485.735 185.565C481.276 182.73 476.203 180.653 471.327 178.641C469.683 175.547 469.144 171.587 468.184 168.218C467.196 164.749 465.998 161.363 464.733 157.988Q463.791 156.05 462.687 154.199C452.824 137.362 425.086 113.803 406.238 109.044C395.957 106.448 380.82 107.974 371.611 113.405C364.017 101.647 355.658 93.278 341.938 89.1358C329.163 85.2787 311.15 86.5391 298.868 91.6676C295.236 93.1846 291.703 95.446 288.549 97.783C283.431 101.575 277.507 108.225 272.212 110.986L271.747 111.225C266.249 109.061 261.156 107.122 255.165 106.95C251.133 106.834 247.022 106.927 243.116 108.022C232.708 110.937 201.816 128.454 192.836 135.338C187.55 139.391 181.607 145.034 177.968 150.623C174.661 155.702 171.845 161.521 170.214 167.366C169.146 171.192 169.326 176.786 167.224 180.011C164.762 183.787 160.499 186.625 157.241 189.719C141.189 204.962 137.663 228.007 132.234 248.35C127.772 265.072 121.537 281.168 117.812 298.141C116.455 304.323 115.175 314.889 115.142 321.059C115.127 323.861 115.638 326.71 115.841 329.507C117.725 355.498 125.289 378.478 135.723 402.162C139.1 409.828 143.143 417.404 146.978 424.858C150.397 431.504 153.817 437.917 155.843 445.171C158.59 455.01 159.563 465.097 160.171 475.26C160.398 479.049 160.923 482.827 161.052 486.621C161.302 493.985 161.121 501.405 161.12 508.777C161.118 518.735 161.232 528.709 160.955 538.662C159.061 535.81 156.804 533.453 154.582 530.881C145.153 519.963 134.271 510.578 125.164 499.374C103.873 473.18 83.6771 430.67 75.4139 397.711C71.1736 380.797 69.449 366.394 68.0942 349.105C67.4528 340.919 67.9361 332.376 67.9548 324.153C67.9722 316.492 67.4968 308.604 68.0142 300.974C70.2203 268.438 79.3895 235.682 93.4786 206.307C96.3735 200.272 99.6946 194.429 102.972 188.595C106.3 182.67 109.643 176.59 113.426 170.95C120.3 160.701 128.098 150.931 136.162 141.599C140.736 136.306 145.828 131.428 150.852 126.572C153.471 124.04 155.97 121.355 158.698 118.939C191.466 89.9192 232.645 67.902 275.379 58.2042C288.159 55.3039 300.95 54.006 313.981 52.9897Z"/>
</svg>
