<?xml version="1.0" encoding="utf-8" ?>
<svg xmlns="http://www.w3.org/2000/svg" xmlns:xlink="http://www.w3.org/1999/xlink" width="672" height="649">
	<path fill="#092444" transform="matrix(3.75419 0 0 3.75145 -6.10352e-05 1.52588e-05)" d="M158.908 145.031C161.141 144.714 163.546 145.208 165.514 146.313Q165.986 146.579 166.429 146.891Q166.872 147.203 167.282 147.557Q167.692 147.911 168.065 148.303Q168.438 148.696 168.77 149.124Q169.102 149.551 169.391 150.01Q169.679 150.468 169.921 150.953Q170.162 151.438 170.355 151.944Q170.547 152.45 170.689 152.973C171.409 155.589 170.995 158.321 169.641 160.663C167.944 163.599 165.491 164.95 162.31 165.809C160.564 166.181 158.864 166.023 157.162 165.479C154.566 164.649 152.47 162.651 151.232 160.257C149.954 157.787 149.669 155.068 150.515 152.41C151.281 150.007 153.312 147.185 155.689 146.176C156.765 145.719 157.837 145.588 158.908 145.031Z"/>
	<path fill="#27CBFC" transform="matrix(3.75419 0 0 3.75145 -6.10352e-05 1.52588e-05)" d="M158.545 149.019C159.955 148.892 161.409 148.852 162.753 149.356C164.416 149.979 165.759 151.143 166.497 152.772Q166.631 153.068 166.735 153.375Q166.839 153.682 166.912 153.998Q166.985 154.314 167.027 154.636Q167.068 154.958 167.078 155.282Q167.088 155.606 167.065 155.93Q167.043 156.254 166.989 156.573Q166.934 156.893 166.849 157.206Q166.763 157.519 166.647 157.822C165.795 160.015 164.2 161.031 162.134 161.956Q161.363 162.056 160.586 162.051Q160.235 162.047 159.887 162.008Q159.538 161.969 159.195 161.896Q158.852 161.822 158.519 161.715Q158.185 161.608 157.863 161.468Q157.541 161.328 157.235 161.157Q156.929 160.986 156.641 160.786Q156.354 160.585 156.088 160.357Q155.821 160.129 155.579 159.875C154.478 158.741 153.736 157.258 153.786 155.65C153.879 152.712 156.587 150.862 158.545 149.019Z"/>
	<path fill="#56FBD2" transform="matrix(3.75419 0 0 3.75145 -6.10352e-05 1.52588e-05)" d="M159.024 153.995C159.869 153.948 161.026 153.726 161.735 154.261C162.218 155.001 162.012 156.149 161.975 157.001C161.14 157.031 159.984 157.233 159.282 156.718C158.81 155.994 159 154.833 159.024 153.995Z"/>
	<path fill="#092444" transform="matrix(3.75419 0 0 3.75145 -6.10352e-05 1.52588e-05)" d="M78.8267 6.07157C82.0206 5.80472 85.2934 5.88332 88.4966 5.8807C101.832 5.86979 110.419 7.69133 122.509 13.6384C126.521 15.6119 130.348 17.6499 133.941 20.3221Q134.758 20.923 135.56 21.5438Q136.361 22.1645 137.148 22.8048Q137.934 23.4451 138.704 24.1044Q139.475 24.7638 140.229 25.4418Q140.983 26.1199 141.72 26.8163Q142.457 27.5126 143.177 28.2269Q143.897 28.9411 144.599 29.6728Q145.301 30.4045 145.985 31.1532Q146.668 31.9018 147.334 32.6671Q147.999 33.4323 148.645 34.2137Q149.292 34.995 149.919 35.792Q150.546 36.5889 151.153 37.4011Q151.76 38.2132 152.347 39.0399Q152.934 39.8667 153.501 40.7076Q154.068 41.5485 154.614 42.4031Q155.159 43.2577 155.684 44.1254Q156.209 44.9931 156.712 45.8734Q157.215 46.7537 157.697 47.6461Q158.178 48.5386 158.638 49.4425Q159.097 50.3465 159.535 51.2614Q159.972 52.1764 160.386 53.1018Q160.801 54.0272 161.193 54.9625Q161.584 55.8978 161.953 56.8424Q162.322 57.787 162.667 58.7404Q163.012 59.6938 163.334 60.6554Q163.656 61.617 163.954 62.5862Q164.253 63.5553 164.527 64.5316Q164.801 65.5078 165.052 66.4904Q165.302 67.4731 165.528 68.4616Q165.754 69.4501 165.956 70.4438Q166.158 71.4376 166.335 72.436Q166.512 73.4344 166.665 74.4368C167.251 78.4708 167.135 82.565 167.135 86.6309C167.135 90.1841 167.323 93.8917 166.972 97.4235C165.617 111.042 159.763 125.264 151.612 136.18C138.717 153.451 120.095 164.871 98.7159 167.955C81.5484 168.739 70.4312 168.329 54.6759 160.475C50.8576 158.572 47.1381 156.692 43.6682 154.191Q42.048 153.016 40.4867 151.763Q38.9253 150.511 37.4264 149.184Q35.9275 147.858 34.4945 146.46Q33.0616 145.063 31.698 143.598Q30.3344 142.132 29.0434 140.603Q27.7523 139.073 26.5368 137.483Q25.3213 135.893 24.1842 134.245Q23.0471 132.598 21.9911 130.898Q20.9351 129.197 19.9626 127.448Q18.9902 125.698 18.1036 123.904Q17.217 122.109 16.4183 120.274Q15.6196 118.439 14.9106 116.567Q14.2017 114.695 13.5843 112.791Q12.9668 110.887 12.4422 108.955Q11.9177 107.024 11.4872 105.069Q11.0568 103.114 10.7215 101.141C9.98586 96.5608 9.9148 92.1238 9.91111 87.4976C9.90835 84.0454 9.77745 80.5033 10.1239 77.0689C11.4724 63.7018 17.0605 49.4072 24.9313 38.5387C27.5543 34.9168 30.4907 31.7952 33.6457 28.6416C46.6645 15.6287 60.6799 8.97223 78.8267 6.07157ZM82.5035 14.1018C65.2045 15.0444 47.8744 24.5516 36.4249 37.3114C26.8317 48.0024 20.0399 62.5655 18.3415 76.8558C17.6704 82.502 17.84 89.0868 18.1523 94.7599C18.893 108.218 25.6044 123.894 34.1069 134.267C36.9093 137.686 40.5484 140.406 43.0902 144.031C42.9086 136.89 43.4515 126.166 41.8745 119.401C40.9184 115.299 38.412 112.035 36.7616 108.25C32.7468 99.0412 29.3825 89.3024 31.5536 79.164C32.4372 75.0376 33.9823 70.9256 35.1613 66.8644C36.869 60.9825 37.3042 55.5583 41.7508 50.9041C42.7406 49.868 43.9102 48.9699 44.8527 47.8989C45.4108 42.797 47.4111 39.4467 51.4298 36.2101C53.2035 34.7815 62.3423 29.7052 64.4375 29.0143C65.7643 28.5767 67.1202 28.4218 68.5095 28.5846C69.936 28.7518 71.1815 29.2991 72.4636 29.9161C74.2606 28.5837 75.8678 26.9231 77.6922 25.6696C80.6796 23.6168 85.4979 22.885 89.029 23.423C92.6963 23.9817 95.6682 25.8063 97.846 28.8094Q98.38 29.5515 98.8808 30.3164C102.749 28.7104 105.979 28.1121 109.969 29.7662C114.339 31.5778 121.931 37.9069 123.743 42.2716C123.815 42.446 123.874 42.6232 123.924 42.8052C124.514 44.4406 124.912 46.1159 125.324 47.802C129.23 48.8687 131.838 51.197 133.809 54.6677C137.807 61.71 139.862 71.5122 137.994 79.4186C139.523 81.9608 140.854 84.6144 142.493 87.0877C145.155 91.1018 148.445 95.2304 150.656 99.4723C151.09 100.306 151.495 101.01 151.271 101.98C150.886 103.651 149.383 105.417 147.916 106.264C144.566 108.196 140.25 107.807 136.582 108.622C136.382 111.16 136.251 113.679 136.242 116.226C136.226 120.659 136.93 126.199 135.518 130.414C134.772 132.643 133.251 134.595 131.482 136.112C129.928 137.444 128.169 138.375 126.175 138.848C122.002 139.838 109.799 139.328 105.002 139.183Q104.931 149.073 103.938 158.913C108.937 156.875 114.215 155.656 119.123 153.304C133.451 146.438 146.994 131.974 153.143 117.359Q153.891 115.578 154.551 113.763Q155.21 111.948 155.779 110.102Q156.349 108.256 156.826 106.385Q157.304 104.514 157.689 102.621Q158.074 100.728 158.365 98.8189Q158.657 96.9095 158.854 94.9882Q159.051 93.0668 159.153 91.1381Q159.255 89.2094 159.262 87.278Q159.269 85.3465 159.181 83.4171Q159.093 81.4877 158.91 79.5649Q158.727 77.6422 158.45 75.7308Q158.172 73.8194 157.801 71.924Q157.43 70.0285 156.966 68.1537Q156.502 66.2788 155.946 64.4291Q155.39 62.5794 154.744 60.7592Q154.098 58.9391 153.363 57.153C152.142 54.1757 150.511 51.3894 148.85 48.6411C142.575 38.2584 134.621 30.1507 124.304 23.7542C121.832 22.2212 119.327 20.6865 116.634 19.5655C103.505 14.0991 96.5377 13.834 82.5035 14.1018ZM128.755 64.0944C126.825 69.3232 123.602 75.2575 118.292 77.6934C115.218 79.1033 112.045 79.0695 108.747 78.9834C107.429 84.4735 105.159 88.6856 100.213 91.7351C96.2218 94.1958 91.9727 94.3037 87.5054 93.2206Q86.4003 92.9417 85.3286 92.5537C83.0964 96.2978 78.3092 102.505 74.8726 105.075C73.2011 106.325 71.232 107.219 69.2137 107.737C64.9932 108.819 60.0807 108.296 56.3204 106.041C52.3663 103.669 49.0704 99.4265 47.9464 94.9354C47.6823 93.8804 47.5362 92.7788 47.3763 91.7035C43.7569 90.5279 42.1702 88.5032 39.4025 86.1485C39.819 94.7931 42.0057 99.9348 45.9435 107.515C47.6639 110.827 49.3224 114.071 50.2524 117.711C51.9903 124.513 51.185 132.335 51.2313 139.312C51.2271 141.099 50.6878 148.583 51.7558 149.658C56.5342 154.467 71.5196 158.724 78.3078 159.661C81.7045 160.129 84.9824 159.577 88.2354 160.886C90.8361 160.128 93.3145 159.913 96.0083 159.816C96.0312 154.466 95.2879 136.958 99.1637 133.169C99.9293 132.42 100.902 132.006 101.94 131.805C103.973 131.412 106.297 131.694 108.371 131.653C111.413 131.592 114.445 131.349 117.485 131.274C119.86 131.214 122.281 131.337 124.647 131.183C125.399 130.371 126.196 129.573 126.904 128.724C127.69 123.107 127.246 117.161 127.194 111.494C127.17 108.813 126.93 105.853 127.624 103.248C127.889 102.253 128.417 101.49 129.236 100.877Q129.825 100.435 130.464 100.068C133.953 99.8146 137.409 99.7562 140.905 99.8069C137.229 93.7534 132.278 88.2083 129.039 81.9085C128.778 77.8232 131.794 67.0999 128.755 64.0944Z"/>
	<path fill="#27CBFC" transform="matrix(3.75419 0 0 3.75145 -6.10352e-05 1.52588e-05)" d="M72.9096 92.3637C74.1059 92.2828 75.3479 92.3486 76.5494 92.3468C74.8321 95.4686 71.745 98.1401 68.3653 99.3171C65.8215 100.203 63.5697 99.867 61.183 98.725C59.5699 97.7216 56.6864 95.7269 56.2475 93.7456C56.1388 93.255 56.249 93.0976 56.5161 92.704C58.4697 92.2044 61.3557 92.7553 63.4305 92.7321C66.5872 92.6968 69.7555 92.5039 72.9096 92.3637Z"/>
	<path fill="#56FBD2" transform="matrix(3.75419 0 0 3.75145 -6.10352e-05 1.52588e-05)" d="M63.2068 37.5601C63.919 37.4867 64.6543 37.4603 65.3699 37.4687C66.6502 37.4837 68.0142 38.0037 68.8986 38.9409C71.2131 41.3934 69.8414 48.2531 69.744 51.4853C67.9088 50.1348 66.3106 49.1051 64.0824 48.4843Q60.1394 48.4697 56.1988 48.6068Q55.9886 48.508 55.7815 48.4029C54.9573 47.9823 54.2143 47.5219 53.9361 46.5867C53.6428 45.6012 53.9575 44.5404 54.4556 43.6778C56.2859 40.5083 59.7614 38.4603 63.2068 37.5601Z"/>
	<path fill="#56FBD2" transform="matrix(3.75419 0 0 3.75145 -6.10352e-05 1.52588e-05)" d="M77.0933 35.0475C79.3508 33.4572 82.2174 31.8867 85.0064 31.6054C88.1401 31.2895 90.2768 33.0041 92.5605 34.8622C92.365 36.2342 91.9639 37.5794 91.8468 38.9662C91.6193 41.6611 92.3997 47.3576 94.22 49.4687C94.8649 50.2167 95.7232 50.707 96.7223 50.7414C97.2753 50.7605 97.8755 50.6055 98.2738 50.1999C99.752 48.6946 98.9733 42.6553 98.8882 40.5561C99.622 39.6866 100.486 38.8342 101.448 38.2203C103.428 36.9576 105.666 36.5432 107.958 37.0476C111.727 37.8772 116.342 41.3372 116.572 45.5287C116.675 47.4067 115.851 49.3753 116.427 51.229C117.061 53.2672 118.874 54.4074 119.937 56.1534C121.373 58.5128 120.71 61.637 120.086 64.1703C119.549 66.6745 118.598 68.7052 116.377 70.1324C114.057 71.623 111.344 71.804 108.661 71.6839L104.855 65.6924C98.5482 57.5351 94.5102 56.7526 84.6652 56.3647C82.9744 56.298 81.1457 56.1647 79.6766 55.2335C75.1062 52.3366 77.9787 44.647 78.0315 40.326C78.0523 38.6312 77.4515 36.7069 77.0933 35.0475Z"/>
	<path fill="#25D3CE" transform="matrix(3.75419 0 0 3.75145 -6.10352e-05 1.52588e-05)" d="M104.855 65.6924C104.897 65.7142 104.938 65.7371 104.981 65.7578C106.414 66.455 107.837 69.1862 108.676 70.5336C108.976 70.4861 109.367 69.0261 109.738 68.6497C112.556 68.0596 114.112 70.2982 115.083 70.2445C117.865 70.0908 118.445 65.7553 119.993 64.2575C120.023 64.2278 120.055 64.1994 120.086 64.1703C119.549 66.6745 118.598 68.7052 116.377 70.1324C114.057 71.623 111.344 71.804 108.661 71.6839L104.855 65.6924Z"/>
	<path fill="#092444" transform="matrix(3.75419 0 0 3.75145 -6.10352e-05 1.52588e-05)" d="M108.111 48.5007C109.186 48.6458 110.304 48.8156 111.135 49.5818C112.081 50.4536 112.551 51.915 112.565 53.1829C112.577 54.2285 112.269 55.4273 111.519 56.1918C110.983 56.7383 110.39 57.2707 109.588 57.2822C107.785 56.5075 105.753 55.3399 104.905 53.465C104.569 52.7225 104.51 51.9207 104.818 51.1582C105.384 49.7563 106.819 49.0717 108.111 48.5007Z"/>
	<defs>
		<linearGradient id="gradient_0" gradientUnits="userSpaceOnUse" x1="73.812363" y1="55.221146" x2="71.074486" y2="86.044571">
			<stop offset="0" stop-color="#74FFD0"/>
			<stop offset="1" stop-color="#1EF3E6"/>
		</linearGradient>
	</defs>
	<path fill="url(#gradient_0)" transform="matrix(3.75419 0 0 3.75145 -6.10352e-05 1.52588e-05)" d="M56.6756 53.3513C57.1672 53.2706 57.6492 53.3781 58.1197 53.5201C60.2985 54.1774 62.3748 55.3156 64.5448 56.0402C65.8815 56.4865 68.1818 56.8024 69.3298 57.5575C72.2419 59.4731 73.2024 62.3283 77.4205 63.7762C80.5458 64.8491 84.5172 64.245 87.7927 64.3164C91.2849 64.3925 94.6133 65.5681 97.0492 68.1333C99.0068 70.1948 101.098 73.8297 100.999 76.7448C100.912 79.3232 99.873 82.063 97.9489 83.8312C97.0208 84.6841 96.0955 85.1676 94.8441 85.3525C91.638 85.8262 88.3305 85.266 85.0997 85.3066C76.4092 85.4156 67.6031 85.8813 58.9193 85.4804C53.204 85.2165 48.832 83.746 44.8671 79.3864C43.9261 78.1407 43.3387 76.7471 43.2383 75.1858C43.0456 72.1891 44.5627 69.9595 46.4536 67.8088C48.8906 71.0764 51.4878 74.7355 55.3403 76.4138C62.4693 79.5195 82.7346 79.1335 89.863 76.3042C88.9198 74.7101 87.8728 72.8719 86.1833 71.9625C82.2084 69.8229 64.4289 72.6867 58.8805 70.0389C55.3042 68.3322 51.232 63.1817 49.9016 59.3995C50.2399 57.4379 50.6998 55.9745 51.7714 54.283C53.4043 53.8798 55.0136 53.5934 56.6756 53.3513Z"/>
</svg>
